<svg height="20" viewBox="0 0 106 20" width="106" xmlns="http://www.w3.org/2000/svg"><path d="m3.48308147 9.09864146h-1.4400296l-2.04305187 5.59558974h1.15893334l.42242961-1.1860603h2.23856295l.40672597 1.1860603h1.22096297zm-1.5892148 3.47942504.82994075-2.387084h.0157037l.77497775 2.387084zm4.00758518 2.3799961c-.0157037.3173853-.21906668.5040362-.51665186.4882851v.7363654c.1334815.0315023.26617778.0315023.39887406.0315023.99404449 0 1.28377782-.4418192 1.29162967-1.3719236v-4.0385903h-1.17385187zm-.04004447-4.8600118h1.25237037v-1.00098444h-1.25237037zm5.79152592.7056507h-1.174637v2.3335303c-.0157037.5654656-.3368444.898602-.7043111.898602-.57946667 0-.6964593-.479622-.70431115-.898602v-2.3335303h-1.17463704v2.5272692c0 .1315219.01570375.3788147.07851855.619807.1413333.5662532.89982224.8607994 1.29162962.8607994.59517037 0 .96263702-.2402048 1.21311112-.596968l.0471111.4796221h1.1738519c-.0235556-.2323293-.0392593-.465446-.046326-.6977752zm3.2867852-.1157708c-.5951704 0-.962637.2323292-1.2052593.5875172l-.0157037-.0220516v-.4496948h-1.1667852v3.8913172h1.1738519v-2.3414058c.0157037-.5662532.3368444-.891514.7043111-.891514.5794667 0 .6964593.4733215.7043111.891514v2.3414058h1.1738519v-2.5359323c0-.1315219-.0149186-.3788147-.0777334-.6190195-.1405481-.5662531-.8998222-.8521362-1.2908444-.8521362zm3.6935111-1.07028946-1.1738518.41898016v.7670801h-.7906815v.7749557h.7906815v1.9145501c0 .8450482.1955111 1.3183698 1.111037 1.3183698.1648889 0 .7906815-.0543414.924163-.1157708v-.682024c-.1256297.0070879-.2504741.0228391-.3761038.0228391-.4067259 0-.4852444-.1401851-.4852444-.6513093v-1.8058674h.8849037v-.7749556h-.8849037zm10.6039259 1.07028946c-.5951703 0-.9634222.2323292-1.3308888.7363654-.1641038-.4268557-.8142371-.7363654-1.2523704-.7363654-.5951704 0-.962637.2323292-1.2052593.5733412h-.0157037v-.4575704h-1.166v3.8913172h1.1738519v-2.3414058c.0157037-.5662532.3360592-.891514.7043111-.891514.5794666 0 .6964592.4733215.7043111.891514v2.3414058h1.1738518v-2.3414058c.0157037-.5662532.3368445-.891514.7050964-.891514.5786814 0 .6964592.4733215.7043111.891514v2.3414058h1.1738518v-2.3414058c0-.3102973.0078518-.6363457-.1177778-.9301043-.1641037-.4260682-.8134519-.7355779-1.2515852-.7355779zm-5.8229333 1.4561922c0-1.1695216-.8849037-1.4569797-1.6748-1.4569797-.4232148 0-.8377926.0622169-1.1589333.2480803-.3125037.1787753-.5237185.4796219-.5315704.967907h1.1267407c-.0157037-.1779878.1169927-.55759.5245037-.55759.4145778 0 .5402075.3173853.5402075.4804095v.3638511c-.470326-.0157511-1.0647112.0078756-1.5342519.2094901-.7121629.3024217-.8377926.9616066-.8377926 1.2325261 0 .7592046.5480593 1.1781846 1.2837778 1.1781846.5323555 0 .9390815-.1858633 1.2052592-.6363457h.0157037c0 .1630242.0157037.3417996.0392593.5189998h1.0568593c-.0157037-.1149832-.0471111-.2323292-.054963-.4260681zm-1.8475407 1.8917109c-.3282074 0-.5708297-.2331167-.5708297-.5583776 0-.6276826.8370074-.6198071 1.2445186-.6119315 0 .4567829-.0235556 1.1703091-.6736889 1.1703091zm13.4941926-1.7208112c-.0306223-.2472928-.0855852-.4796219-.1955112-.6977751-.3282073-.682024-.9390814-.9301043-1.6748-.9301043-1.1974074 0-1.8860148.8993896-1.8860148 2.0696987 0 1.3010435.5394223 2.05316 1.8860148 2.05316.915526 0 1.6748-.3165977 1.7768741-1.2789919h-1.0568593c-.1099259.3567632-.3132888.5048238-.7200148.5048238-.6030222 0-.6729037-.4733215-.6729037-.9765702h2.5746223c0-.2559559 0-.5040362-.0314074-.744241zm-2.544-.0315022c.0157037-.4268557.1326963-.8222091.6729037-.8222091.5716148 0 .6886074.3953534.6886074.8222091zm5.5559703-1.5955897c-.5951704 0-.962637.2323292-1.2052592.5875172l-.0157037-.0220516v-.4496948h-1.166v3.8913172h1.1738518v-2.3414058c.0157037-.5662532.3368444-.891514.7043112-.891514.5794666 0 .6964592.4733215.7043111.891514v2.3414058h1.1738518v-2.5359323c0-.1315219-.0149185-.3788147-.0777334-.6190195-.1413333-.5662531-.9006074-.8521362-1.2916296-.8521362zm3.6942963-1.07028946-1.1738518.41898016v.7670801h-.7906815v.7749557h.7906815v1.9145501c0 .8450482.1955111 1.3183698 1.111037 1.3183698.1648889 0 .7906815-.0543414.924163-.1157708v-.682024c-.1256297.0070879-.2504741.0228391-.3761037.0228391-.406726 0-.4852445-.1401851-.4852445-.6513093v-1.8058674h.8849037v-.7749556h-.8849037zm26.1655113-.52608778h-1.1738522v2.15554244h-.0157033c-.2198522-.3260485-.6422816-.5670408-1.0490077-.5670408-1.2209628 0-1.840474 1.0151605-1.840474 2.0618232 0 1.0009844.5402075 2.0618232 1.6905035 2.0618232.5088002 0 .9477188-.20949 1.2060447-.6670604h.0157039c0 .1858633.0164886.3646387.0306221.550502h1.1746368c-.0157039-.2551683-.0392589-.5189998-.0392589-.7749556v-4.82063404zm-2.0187111 4.93719234c-.7514222 0-.8464297-.6898996-.8464297-1.2868675s.0950075-1.2868675.8464297-1.2868675c.6336442 0 .8448589.7521166.8448589 1.2868675s-.2112147 1.2868675-.8448589 1.2868675zm6.4950519-1.7200236c-.0314079-.2480804-.0848004-.4804095-.1955114-.6985627-.3289927-.6812365-.9390813-.9301044-1.6748001-.9301044-1.1974073 0-1.8860149.8993896-1.8860149 2.0696988 0 1.3026186.5402075 2.0539476 1.8860149 2.0539476.9155262 0 1.6748001-.3173853 1.7768742-1.2789919h-1.0568593c-.1099258.3567631-.3132888.5040362-.7200149.5040362-.6030221 0-.6729037-.472534-.6729037-.9765702h2.5746225c0-.2551683 0-.5040362-.0314073-.7434534zm-2.5432152-.0307147c.0157039-.4268557.1326962-.8222091.6729037-.8222091.5716147 0 .6886076.3953534.6886076.8222091zm9.6648447-3.18645404h-4.5792v.93089184h1.683437v4.666273h1.212326v-4.666273h1.6842221v-.93089184zm3.5435407 3.21716874c-.0314073-.2480804-.085585-.4804095-.1955113-.6985627-.3289922-.6812365-.9390814-.9301044-1.6755853-.9301044-1.1966221 0-1.8860144.8993896-1.8860144 2.0696988 0 1.3026186.540207 2.0539476 1.8860144 2.0539476.9155262 0 1.6755853-.3173853 1.7776594-1.2789919h-1.0568594c-.1107109.3567631-.3132888.5040362-.7208.5040362-.6030221 0-.6729037-.472534-.6729037-.9765702h2.5754076c0-.2551683 0-.5040362-.0314073-.7434534zm-2.5440003-.0307147c.016489-.4268557.1334819-.8222091.6729037-.8222091.5724004 0 .6886076.3953534.6886076.8222091zm4.4143113-.7757433h-.0164891l-.0227699-.7056507h-1.0725633c.0164891.2866706.0392596.6119315.0392596.7749557l.0078516 3.1163615h1.166v-1.9303013c.0086369-.2559558.0314073-.4725339.157037-.6898996.1162077-.1630242.376104-.2709194.5708296-.2866706h.5088002v-1.0309115c-.5865335-.0149636-1.0882667.1393975-1.3379557.7521165zm3.1218964 0h-.0157039l-.0235556-.7056507h-1.0725627c.0164886.2866706.0400442.6119315.0400442.7749557l.0078522 3.1163615h1.1652148v-1.9303013c.0078517-.2559558.0321924-.4725339.1562518-.6898996.1177775-.1630242.3761034-.2709194.5723999-.2866706h.5080145v-1.0309115c-.5873181-.0149636-1.0874814.1393975-1.3379552.7521165zm5.4617481.6418587c0-1.1695216-.8849036-1.4569797-1.6748001-1.4569797-.4232146 0-.8377924.0622169-1.1589334.2480803-.3125037.1787753-.5245036.4796219-.5323553.967907h1.1275256c-.0164885-.1779878.1162077-.55759.5245041-.55759.4137926 0 .540207.3173853.540207.4804095v.3638511c-.4703259-.0157511-1.0639259.0078756-1.5334666.2094901-.7129478.3024217-.8377924.9616066-.8377924 1.2325261 0 .7592046.5480592 1.1781846 1.2837775 1.1781846.5331409 0 .9390818-.1858633 1.2052595-.6363457h.0164891c0 .1630242.0157033.3417996.0384738.5189998h1.0576445c-.0164891-.1149832-.0471112-.2323292-.0549629-.4260681v-2.122465zm-1.847541 1.8917109c-.3282071 0-.5716148-.2331167-.5716148-.5583776 0-.6276826.8370078-.6198071 1.2445185-.6119315.0007852.4567829-.0227699 1.1703091-.6729037 1.1703091zm3.8968743-2.2311478c0-.2559559.1491853-.3488876.4695406-.3488876.2669634 0 .5166519.1157708.533141.3796023h1.0568593c-.0541777-.8600118-.7592744-1.154558-1.5892151-1.154558-.6886071 0-1.6826518.3559756-1.6826518 1.1703091 0 .9056901.6964593 1.0687143 1.4478815 1.2474897.2347703.0535538.7993185.1858633.7993185.4961606 0 .3024218-.242622.4339437-.5645482.4339437-.343911 0-.6171556-.1701122-.6407112-.4733215h-1.0882667c.0157039.8923016.8134522 1.2482772 1.7289779 1.2482772.7286518 0 1.7776594-.4260681 1.7776594-1.2782043-.0007852-1.4577674-2.2479852-1.1088798-2.2479852-1.7208112zm3.9934516 0c0-.2559559.1491853-.3488876.4703266-.3488876.266177 0 .515866.1157708.532355.3796023h1.057645c-.054963-.8600118-.76006-1.154558-1.589215-1.154558-.6886076 0-1.683437.3559756-1.683437 1.1703091 0 .9056901.6964587 1.0687143 1.4494518 1.2474897.2339852.0535538.7977482.1858633.7977482.4961606 0 .3024218-.242623.4339437-.563763.4339437-.3439115 0-.6179408-.1701122-.6414964-.4733215h-1.0882667c.0164886.8923016.8142368 1.2482772 1.7297631 1.2482772.728652 0 1.776874-.4260681 1.776874-1.2782043-.000785-1.4577674-2.2479856-1.1088798-2.2479856-1.7208112zm6.3733486 2.463477v-2.1240401c0-1.1695216-.884904-1.4569797-1.6748-1.4569797-.423215 0-.837007.0622169-1.159719.2480803-.312503.1787753-.522933.4796219-.532355.967907h1.127526c-.015704-.1779878.117778-.55759.525288-.55759.414579 0 .540208.3173853.540208.4804095v.3638511c-.470326-.0157511-1.065496.0078756-1.535037.2094901-.711378.3024217-.837007.9616066-.837007 1.2325261 0 .7592046.547274 1.1781846 1.283777 1.1781846.532356 0 .938297-.1858633 1.20526-.6363457h.015704c0 .1630242.016488.3417996.040044.5189998h1.056859c-.015704-.1134081-.047896-.2307541-.055748-.424493zm-1.847541-.2323292c-.328207 0-.57083-.2331167-.57083-.5583776 0-.6276826.837008-.6198071 1.245304-.6119315 0 .4567829-.024341 1.1703091-.674474 1.1703091zm-53.0204148-3.6558377c0-.1055326-.0863702-.1913763-.1931553-.1913763-.1075708 0-.1923707.0858437-.1923707.1913763l-.0007851.724552h.3863111zm2.0336299 9.1616459v-13.30576878l-6.6787852 6.65249058zm-3.8481928-8.7418783v.3032093h.1672442v-.3032093h.2292742v.3032093h.1915855v-.3032093h.1766667v1.4758811h.3054366v-2.83835401h.2685337v.34101202h.1672442v-.34101202h.2677485v.34101202h.1523255v-.34101202h.2528297v2.83835401h.3062223v-1.4758811h.2300593v.3032093h.1664591v-.3032093h.1915855v.3032093h.1900146v-.3032093h.1774519v4.2394172h-1.1840594l-.0007851-1.5696003c0-.3449498-.2818816-.6229573-.6305035-.6229573-.3470522 0-.6257925.2787951-.6257925.6229573l-.0015704 1.571963-1.2264596-.0023627v-4.2394172zm.4522664.7536917c0-.1055326-.0863702-.1913762-.1939404-.1913762-.1067852 0-.191585.0858436-.191585.1913762l-.0015709.7245521h.3863112zm2.6978967 0c0-.1055326-.0871559-.1913762-.193941-.1913762-.1075703 0-.1923701.0858436-.1923701.1913762l-.0007852.7245521h.3863111zm3.1313185-2.90844656v8.48119706l.822089-.8159086v-6.84544203zm1.5051999 1.51210866v5.4750936l.8299407-.8300847.0070666-3.8109864zm1.4675113 1.4711558v2.5485332l.8095258-.8025202.0015703-.9364048zm-12.5472593 2.1397913 6.25557 6.2319354h.7710519l-7.0266219-6.9580626zm7.9908297 6.2319354 6.2940443-6.2319354v-.7261272l-6.9881481 6.9580626zm-.7325781-14.18310692 7.0266224 6.91947232v-.6883244l-6.2555705-6.23114792zm-.9649925 0-6.2940443 6.19255762v.765505l7.026622-6.95806262zm1.6975706 1.26402836-.0062819 11.60858436.7898966-.7765308.004711-10.05158496zm-4.9081927-3.67080133.7223704 1.47273085h6.7164737l.7655558-1.51525893.551985-.21106514 1.2759263-3.15652689h-.893541l-.8927553.92616657-.2551852-.29533373-.5943852.29533373v-.92616657h-1.0631407l-.5951704.92616657-.3816001-.33707423-.3690369.32368576-.3965189-.9127781h-.9783408l-.424785.96790707-.4671851-.42055523-.3831705.42055523-.6375701-.96790707h-1.0199558l.009422.93482969-.5197925-.34494979-.2543996.37881473-.8503556-.96790708h-1.0623555l1.4015554 3.15652689zm9.091659-2.82260288h.2559704l-.9783408 2.14687933h-.5951704zm-1.7062074.88285095.3878815-.12758417.1287703.17011223-.6438519.80803308zm-.7969631-.88048828h.3399857l-.3399857 2.1468793h-.8503551zm-1.3065479.75290411.2151406.17011223-.3863111.80803308-.1287704-.85056114zm-1.4141187-.75290411h.3823853l.2559705 2.1468793h-.9359407zm-1.0325185.71037606.3007261.25438078-.1287704.80803305-.3863111-.80803305zm4.8673634 2.05473518-.5826077.96790705h-.2975849v-.75762946h-.5951704v.75762946h-.5519855v-.75762946h-.6807554v.75762946h-.5951704v-.75762946h-.6375705v.75762946h-.5511999v-.75762946h-.6375705v.75762946h-.6375701v-.75762946h-.5951703v.75762946h-.2127856l-.6085183-.96790705zm-6.2147412-2.76511124.8495705 2.1468793h-.8495705l-.2975849-2.1468793zm-1.2099699.8166962.3863111.12758417.1287699.84977356-.6430663-.8072455zm-1.2131112-.8166962 1.3183259 2.1468793h-.5959555l-.9775557-2.1468793z" fill="#222" fill-rule="evenodd"/></svg>