<?xml version="1.0" encoding="UTF-8"?>
<svg width="776px" height="213px" viewBox="0 0 776 213" version="1.1"
  xmlns="http://www.w3.org/2000/svg"
  xmlns:xlink="http://www.w3.org/1999/xlink">
  <title>Logo Ajuntament de Terrassa (1)</title>
  <g id="Page-1" stroke="none" stroke-width="1" fill-rule="evenodd">
    <g id="Logo-Ajuntament-de-Terrassa-(1)">
      <g id="g10" transform="translate(388.000000, 106.666670) scale(-1, 1) rotate(-180.000000) translate(-388.000000, -106.666670) translate(0.000000, 0.666670)">
        <g id="g12">
          <g id="g14-Clipped">
            <g id="g14" transform="translate(-0.000007, 0.333326)">
              <g id="g24" transform="translate(181.777328, 148.175728)">
                <path d="M21.3333328,23.9999994 L30.3119992,50.0653321 L30.4786659,50.0653321 L38.8453324,23.9999994 L21.3333328,23.9999994 Z M13.381333,0.899999978 L17.9613329,13.8186663 L42.1653323,13.8186663 L46.5586655,0.899999978 L59.7693318,0.899999978 L38.5306657,61.9813318 L22.9479994,61.9813318 L0.850666645,0.899999978 L13.381333,0.899999978 Z" id="path26"></path>
              </g>
              <path d="M246.001326,199.245327 L259.535992,199.245327 L259.535992,210.157327 L246.001326,210.157327 L246.001326,199.245327 Z M259.101326,191.535994 L246.426659,191.535994 L246.426659,146.175995 C246.245326,142.718662 244.053326,140.674662 240.830659,140.861329 L240.830659,132.803996 C242.277326,132.450662 243.709326,132.450662 245.166659,132.450662 C255.897326,132.450662 259.025326,137.303995 259.101326,147.461328 L259.101326,191.535994 Z" id="path28"></path>
              <g id="g30" transform="translate(267.081325, 147.742128)">
                <path d="M29.3333326,1.3333333 L42.0079989,1.3333333 C41.759999,3.86933324 41.6026656,6.38666651 41.515999,8.93599978 L41.515999,43.7946656 L28.8213326,43.7946656 L28.8213326,18.3439995 C28.654666,12.149333 25.1733327,8.52933312 21.1946661,8.52933312 C14.9399996,8.52933312 13.673333,13.765333 13.597333,18.3439995 L13.597333,43.7946656 L0.889333311,43.7946656 L0.889333311,16.2146663 C0.889333311,14.7866663 1.05999997,12.0879997 1.72933329,9.44666643 C3.26666658,3.25866659 11.481333,0.0439999989 15.7173329,0.0439999989 C22.1306661,0.0439999989 26.1199993,2.66133327 28.8213326,6.5666665 L29.3333326,1.3333333 Z" id="path32"></path>
              </g>
              <g id="g34" transform="translate(317.591191, 148.869728)">
                <path d="M13.333333,42.6666656 L0.719999982,42.6666656 L0.719999982,0.205333328 L13.409333,0.205333328 L13.409333,25.7613327 C13.577333,31.9359992 17.0533329,35.4893324 21.0213328,35.4893324 C27.2919993,35.4893324 28.5573326,30.3159992 28.6199993,25.7613327 L28.6199993,0.205333328 L41.3373323,0.205333328 L41.3373323,27.866666 C41.3373323,29.3186659 41.1813323,32.0173325 40.4973323,34.6346658 C38.963999,40.8226656 30.7453326,43.9506656 26.5133327,43.9506656 C20.0959995,43.9506656 16.1119996,41.419999 13.4906663,37.5133324 L13.333333,37.7773324 L13.333333,42.6666656 Z" id="path36"></path>
              </g>
              <g id="g38" transform="translate(362.797456, 147.536395)">
                <path d="M0,43.9999989 L0,35.5559991 L8.53866645,35.5559991 L8.53866645,14.6426663 C8.53866645,5.42666653 10.6586664,0.249333327 20.5639995,0.249333327 C22.3453328,0.249333327 29.1093326,0.865333312 30.5399992,1.53866663 L30.5399992,8.97866644 C29.1893326,8.89866644 27.842666,8.73599978 26.4613327,8.73599978 C22.0933328,8.73599978 21.2333328,10.2506664 21.2333328,15.8279996 L21.2333328,35.5559991 L30.8039992,35.5559991 L30.8039992,43.9999989 L21.2333328,43.9999989 L21.2333328,56.9613319 L8.53866645,52.401332 L8.53866645,43.9999989 L0,43.9999989 Z" id="path40"></path>
              </g>
              <g id="g42" transform="translate(396.842389, 147.539728)">
                <path d="M14.6666663,31.9999992 C14.501333,33.9399992 15.9319996,38.0893324 20.3306662,38.0893324 C24.830666,38.0893324 26.1773327,34.6173325 26.1773327,32.8359992 L26.1773327,28.8666659 C21.1039995,29.0293326 14.6666663,28.7679993 9.57733309,26.5799993 C1.88799995,23.2706661 0.530666653,16.0733329 0.530666653,13.1266663 C0.530666653,4.82666655 6.47199984,0.24666666 14.4186663,0.24666666 C20.1599995,0.24666666 24.5533327,2.27599994 27.442666,7.17999982 L27.6199993,7.17999982 C27.6199993,5.42399986 27.790666,3.46133325 28.038666,1.53599996 L39.463999,1.53599996 C39.3013324,2.8066666 38.947999,4.0719999 38.8706657,6.17333318 L38.8706657,29.3599993 C38.8706657,42.1533323 29.3053326,45.2813322 20.7506661,45.2813322 C16.1759996,45.2813322 11.701333,44.6079989 8.22533313,42.5879989 C4.85333321,40.619999 2.56533327,37.3306657 2.48399994,31.9999992 L14.6666663,31.9999992 Z M26.1773327,21.4879995 C26.1773327,16.4986663 25.9333327,8.73199978 18.8946662,8.73199978 C15.3359996,8.73199978 12.7239997,11.2693331 12.7239997,14.8026663 C12.7239997,21.6506661 21.7733328,21.5893328 26.1773327,21.4879995" id="path44"></path>
              </g>
              <g id="g46" transform="translate(444.190121, 148.869728)">
                <path d="M13.333333,42.6666656 L0.726666648,42.6666656 L0.726666648,0.205333328 L13.4199997,0.201333328 L13.4199997,25.7613327 C13.577333,31.9359992 17.0546662,35.4839991 21.0239995,35.4839991 C27.294666,35.4839991 28.5693326,30.3159992 28.650666,25.7613327 L28.650666,0.201333328 L41.3386656,0.201333328 L41.3386656,25.7613327 C41.5066656,31.9359992 44.9826655,35.4839991 48.9666654,35.4839991 C55.2226653,35.4839991 56.4919986,30.3159992 56.5733319,25.7613327 L56.5733319,0.201333328 L69.2679983,0.201333328 L69.2679983,25.7613327 C69.2679983,29.1519993 69.3493316,32.6906658 68.002665,35.9186658 C66.2266666,40.5613323 59.1866652,43.9506656 54.4626653,43.9506656 C48.0253321,43.9506656 44.0373322,41.415999 40.0786657,35.9186658 C38.2973324,40.5613323 31.2666659,43.9506656 26.5253327,43.9506656 C20.0959995,43.9506656 16.1133329,41.415999 13.501333,37.6946657 L13.333333,37.6946657 L13.333333,42.6666656 Z" id="path48"></path>
              </g>
              <g id="g50" transform="translate(520.751319, 147.389328)">
                <path d="M13.333333,27.9999993 C13.505333,32.6573325 14.765333,36.9639991 20.6066662,36.9639991 C26.7813327,36.9639991 28.0559993,32.6573325 28.0559993,27.9999993 L13.333333,27.9999993 Z M41.1706656,19.5373328 C41.1706656,22.3319994 41.1706656,25.0293327 40.8266656,27.670666 C40.5066657,30.3693326 39.9106657,32.8999992 38.7213324,35.2786658 C35.1679991,42.7386656 28.562666,45.4319989 20.6066662,45.4319989 C7.66933314,45.4319989 0.209333328,35.6173324 0.209333328,22.8479994 C0.209333328,8.61066645 6.05466652,0.397333323 20.6066662,0.397333323 C30.5119992,0.397333323 38.7213324,3.87333324 39.8293323,14.3559996 L28.3959993,14.3559996 C27.2159993,10.4773331 24.9999994,8.88266644 20.6066662,8.88266644 C14.0866663,8.88266644 13.333333,14.0359996 13.333333,19.5373328 L41.1706656,19.5373328 Z" id="path52"></path>
              </g>
              <g id="g54" transform="translate(567.610651, 148.869728)">
                <path d="M13.333333,42.6666656 L0.714666649,42.6666656 L0.714666649,0.201333328 L13.4146663,0.201333328 L13.4146663,25.7613327 C13.5719997,31.9359992 17.0493329,35.4839991 21.0306661,35.4839991 C27.2879993,35.4839991 28.558666,30.3159992 28.638666,25.7613327 L28.638666,0.201333328 L41.3386656,0.201333328 L41.3386656,27.866666 C41.3386656,29.3186659 41.175999,32.0173325 40.491999,34.6293325 C38.9653324,40.8226656 30.7639992,43.9506656 26.5279993,43.9506656 C20.0906662,43.9506656 16.1319996,41.415999 13.4906663,37.5133324 L13.333333,37.7773324 L13.333333,42.6666656 Z" id="path56"></path>
              </g>
              <g id="g58" transform="translate(612.812517, 147.536395)">
                <path d="M0,43.9999989 L0,35.5559991 L8.54266645,35.5559991 L8.54266645,14.6386663 C8.54266645,5.4213332 10.6639997,0.249333327 20.5693328,0.249333327 C22.3466661,0.249333327 29.1079993,0.865333312 30.5653326,1.53466663 L30.5653326,8.97866644 C29.2133326,8.89866644 27.8479993,8.73599978 26.490666,8.73599978 C22.0733328,8.73599978 21.2559995,10.2453331 21.2559995,15.8279996 L21.2559995,35.5559991 L30.8079992,35.5559991 L30.8079992,43.9999989 L21.2559995,43.9999989 L21.2559995,56.9613319 L8.54266645,52.401332 L8.54266645,43.9999989 L0,43.9999989 Z" id="path60"></path>
              </g>
              <g id="g62" transform="translate(680.472648, 146.646529)">
                <path d="M31.9999992,39.999999 L31.8333325,39.999999 C29.4599993,43.5626656 24.9079994,46.1746655 20.4853328,46.1746655 C7.30133315,46.1746655 0.599999985,35.0946658 0.599999985,23.6719994 C0.599999985,12.7506663 6.44399984,1.13999997 18.8719995,1.13999997 C24.3919994,1.13999997 29.1386659,3.43199991 31.9173325,8.41733312 L32.0813325,8.41733312 C32.0813325,6.39333317 32.2626659,4.45333322 32.4199992,2.42399994 L45.1293322,2.42399994 C44.9559989,5.20399987 44.6946655,8.09333313 44.6946655,10.8733331 L44.6946655,63.5106651 L31.9999992,63.5106651 L31.9999992,39.999999 Z M13.7239997,23.6719994 C13.7239997,30.1706659 14.7466663,37.7066657 22.8639994,37.7066657 C29.7026659,37.7066657 31.9999992,29.4986659 31.9999992,23.6719994 C31.9999992,17.8159996 29.7026659,9.62533309 22.8639994,9.62533309 C14.7466663,9.62533309 13.7239997,17.1533329 13.7239997,23.6719994" id="path64"></path>
              </g>
              <g id="g66" transform="translate(732.708247, 147.389328)">
                <path d="M13.333333,27.9999993 C13.5146663,32.6573325 14.7746663,36.9639991 20.6306662,36.9639991 C26.8013327,36.9639991 28.0719993,32.6573325 28.0719993,27.9999993 L13.333333,27.9999993 Z M41.175999,19.5373328 C41.175999,22.3319994 41.175999,25.0293327 40.8413323,27.670666 C40.4973323,30.3693326 39.9066657,32.8999992 38.7213324,35.2786658 C35.1626658,42.7386656 28.5853326,45.4319989 20.6306662,45.4319989 C7.66399981,45.4319989 0.223999994,35.6173324 0.223999994,22.8479994 C0.223999994,8.61066645 6.05466652,0.397333323 20.6306662,0.397333323 C30.5266659,0.397333323 38.7213324,3.87333324 39.819999,14.385333 L28.3853326,14.385333 C27.206666,10.4773331 25.0253327,8.88266644 20.6306662,8.88266644 C14.1066663,8.88266644 13.333333,14.0359996 13.333333,19.5373328 L41.175999,19.5373328 Z" id="path68"></path>
              </g>
              <g id="g70" transform="translate(186.242794, 2.169332)">
                <polygon id="path72" points="0 90.6666644 31.9159992 90.6666644 31.9159992 1.30399997 54.917332 1.30399997 54.917332 90.6666644 86.8279978 90.6666644 86.8279978 108.470664 0 108.470664"></polygon>
              </g>
              <g id="g74" transform="translate(268.016259, 0.302132)">
                <path d="M23.9999994,49.3333321 C24.3093327,57.4893319 26.5173327,65.074665 36.7599991,65.074665 C47.5973321,65.074665 49.8226654,57.4893319 49.8226654,49.3333321 L23.9999994,49.3333321 Z M72.8226648,34.4946658 C72.8226648,39.379999 72.8226648,44.1399989 72.2493315,48.7453321 C71.6519982,53.5079987 70.6066649,57.9439986 68.5333316,62.1079984 C62.2866651,75.1546648 50.6959987,79.915998 36.7599991,79.915998 C14.0706663,79.915998 0.985333309,62.6813318 0.985333309,40.2773323 C0.985333309,15.3386663 11.2479997,0.94933331 36.7599991,0.94933331 C54.1386653,0.94933331 68.5333316,7.01999982 70.4479982,25.434666 L50.4106654,25.434666 C48.3279988,18.6106662 44.4826656,15.7879996 36.7599991,15.7879996 C25.350666,15.7879996 23.9999994,24.842666 23.9999994,34.4946658 L72.8226648,34.4946658 Z" id="path76"></path>
              </g>
              <g id="g78" transform="translate(354.611990, 3.303332)">
                <path d="M0,74.6666648 C0.290666659,69.2066649 0.735999982,62.9746651 0.735999982,59.8466652 L0.883999978,0.169333329 L23,0.169333329 L23,37.1346657 C23.1479994,42.0199989 23.5973327,46.1693333 25.9413327,50.3186654 C28.1919993,53.4519987 33.0813325,55.5333319 36.7973324,55.8199986 L46.4239988,55.8199986 L46.4239988,75.5639981 C35.3013325,75.8733314 25.798666,72.9093315 21.0799995,61.1746651 L20.7746661,61.1746651 L20.3253328,74.6666648 L0,74.6666648 Z" id="path80"></path>
              </g>
              <g id="g82" transform="translate(413.778655, 3.303332)">
                <path d="M0,74.6666648 C0.305333326,69.2066649 0.735999982,62.9746651 0.735999982,59.8466652 L0.882666645,0.169333329 L23,0.169333329 L23,37.1346657 C23.1386661,42.0199989 23.5866661,46.1693333 25.9839994,50.3186654 C28.1919993,53.4519987 33.0959992,55.5333319 36.8146657,55.8199986 L46.4439988,55.8159986 L46.4439988,75.5639981 C35.3253325,75.8733314 25.8213327,72.9093315 21.0706661,61.1746651 L20.7693328,61.1746651 L20.3346662,74.6666648 L0,74.6666648 Z" id="path84"></path>
              </g>
              <g id="g86" transform="translate(470.621054, 0.908799)">
                <path d="M25.3333327,55.9999986 C25.0319994,59.4146652 27.5693326,66.6733317 35.2719991,66.6733317 C43.1466656,66.6733317 45.5106655,60.6039985 45.5106655,57.4746652 L45.5106655,50.5026654 C36.5999991,50.8133321 25.3333327,50.3639987 16.4266663,46.5013322 C2.92533326,40.711999 0.53733332,28.0813326 0.53733332,22.9079994 C0.53733332,8.34799979 10.9253331,0.337333325 24.8839994,0.337333325 C34.9853325,0.337333325 42.6933323,3.8959999 47.7426655,12.521333 L48.0466655,12.521333 C48.0466655,9.3973331 48.3333321,5.97733318 48.7773321,2.56399994 L68.8159983,2.56399994 C68.534665,4.79466655 67.922665,6.99999982 67.7759983,10.7253331 L67.7759983,51.405332 C67.7759983,73.8266648 51.0173321,79.3053314 36.0306658,79.3053314 C27.9933326,79.3053314 20.1239995,78.1013314 14.053333,74.5426648 C8.10266646,71.1293316 4.11466656,65.3693317 3.9719999,55.9999986 L25.3333327,55.9999986 Z M45.5106655,37.5826657 C45.5106655,28.8346659 45.0826655,15.181333 32.7546658,15.181333 C26.5279993,15.181333 21.8999995,19.6373328 21.8999995,25.8693327 C21.8999995,37.8893324 37.8119991,37.7279991 45.5106655,37.5826657" id="path88"></path>
              </g>
              <g id="g90" transform="translate(552.269452, 0.764265)">
                <path d="M63.9999984,57.3333319 C62.9546651,73.8093315 49.6066654,79.4506647 33.8639992,79.4506647 C20.8226661,79.4506647 1.95466662,72.6106649 1.95466662,57.0279986 C1.95466662,39.667999 15.173333,36.5586658 29.4279993,33.1253325 C33.8639992,32.0879992 44.5733322,29.5719993 44.5733322,23.6213327 C44.5733322,17.8373329 39.9773323,15.325333 33.8639992,15.325333 C27.342666,15.325333 22.1693328,18.5919995 21.6959995,24.3799994 L1.07066664,24.3799994 C1.37599997,7.28799982 16.5346663,0.481333321 33.8639992,0.481333321 C47.6813321,0.481333321 67.558665,8.63866645 67.558665,24.9693327 C67.558665,52.8586653 24.9693327,46.1919988 24.9693327,57.9493319 C24.9693327,62.8346651 27.8093326,64.6119984 33.8639992,64.6119984 C38.931999,64.6119984 43.6759989,62.3853318 43.9626656,57.3333319 L63.9999984,57.3333319 Z" id="path92"></path>
              </g>
              <g id="g94" transform="translate(627.989583, 0.764265)">
                <path d="M63.9999984,57.3333319 C62.9346651,73.8093315 49.5773321,79.4506647 33.8466658,79.4506647 C20.7799995,79.4506647 1.93466662,72.6106649 1.93466662,57.0279986 C1.93466662,39.667999 15.1346663,36.5586658 29.4053326,33.1253325 C33.8466658,32.0879992 44.5333322,29.5719993 44.5333322,23.6213327 C44.5333322,17.8373329 39.9346657,15.325333 33.8466658,15.325333 C27.326666,15.325333 22.1119994,18.5919995 21.6786661,24.3799994 L1.05599997,24.3799994 C1.34266663,7.28799982 16.4853329,0.481333321 33.8466658,0.481333321 C47.6626655,0.481333321 67.5533316,8.63866645 67.5533316,24.9693327 C67.5533316,52.8586653 24.9533327,46.1919988 24.9533327,57.9493319 C24.9533327,62.8346651 27.7479993,64.6119984 33.8466658,64.6119984 C38.8933324,64.6119984 43.6319989,62.3853318 43.9413322,57.3333319 L63.9999984,57.3333319 Z" id="path96"></path>
              </g>
              <g id="g98" transform="translate(705.984381, 0.908799)">
                <path d="M25.3333327,55.9999986 C25.0319994,59.4146652 27.5453326,66.6733317 35.2719991,66.6733317 C43.1413323,66.6733317 45.5119989,60.6039985 45.5119989,57.4746652 L45.5119989,50.5026654 C36.6239991,50.8133321 25.3333327,50.3639987 16.4026663,46.5013322 C2.90666659,40.711999 0.53733332,28.0813326 0.53733332,22.9079994 C0.53733332,8.34799979 10.9253331,0.337333325 24.8839994,0.337333325 C34.9853325,0.337333325 42.6933323,3.8959999 47.7359988,12.521333 L48.0239988,12.521333 C48.0239988,9.3973331 48.3293321,5.97733318 48.7773321,2.56399994 L68.8159983,2.56399994 C68.5119983,4.79466655 67.8999983,6.99999982 67.7759983,10.7253331 L67.7759983,51.405332 C67.7759983,73.8266648 51.0026654,79.3053314 36.0306658,79.3053314 C27.9933326,79.3053314 20.1186662,78.1013314 14.0719996,74.5426648 C8.10266646,71.1293316 4.11466656,65.3693317 3.9479999,55.9999986 L25.3333327,55.9999986 Z M45.5119989,37.5826657 C45.5119989,28.8346659 45.0813322,15.181333 32.7546658,15.181333 C26.5239993,15.181333 21.9239995,19.6373328 21.9239995,25.8693327 C21.9239995,37.8893324 37.7799991,37.7279991 45.5119989,37.5826657" id="path100"></path>
              </g>
              <g id="g102" transform="translate(0.630265, 3.490265)">
                <path d="M11.9999997,206.666662 L22.8839994,206.666662 L31.5813325,196.694662 L34.1933325,200.597328 L39.4893323,197.038662 L39.407999,206.666662 L49.8386654,206.666662 L56.3573319,196.694662 L60.2826652,201.050662 L65.0439984,196.694662 L69.3946649,206.666662 L79.3906647,206.666662 L83.4693312,197.243995 L87.2173312,200.597328 L91.1293311,197.125328 L97.2186642,206.666662 L108.097331,206.666662 L108.097331,197.125328 L114.166664,200.167995 L116.783997,197.125328 L125.895997,206.666662 L135.042663,206.666662 L121.994664,174.082662 L116.359997,171.898662 L108.522664,156.253329 L39.8333323,156.253329 L32.4493325,171.470662 L26.3613327,174.082662 L11.9999997,206.666662 Z M111.937331,192.807995 L107.973331,191.518662 L106.665331,182.730662 L113.246664,191.069329 L111.937331,192.807995 Z M86.4639978,192.807995 L83.3973312,191.518662 L84.7053312,182.730662 L88.6546645,191.069329 L86.4639978,192.807995 Z M59.2373319,190.625329 L63.1959984,182.277329 L64.5333317,190.625329 L61.4386651,193.255995 L59.2373319,190.625329 Z M72.0119982,200.597328 L75.9146648,200.597328 L78.535998,178.437329 L68.9693316,178.437329 L72.0119982,200.597328 Z M44.6186656,200.597328 L47.6653321,200.597328 L56.3573319,178.437329 L47.6653321,178.437329 L44.6186656,200.597328 Z M37.7506657,172.038662 L111.221331,172.038662 L105.274664,162.037329 L102.233331,162.037329 L102.233331,169.850662 L96.1346643,169.850662 L96.1346643,162.037329 L90.4946644,162.037329 L90.4946644,169.850662 L83.5453312,169.850662 L83.5453312,162.037329 L77.4506647,162.037329 L77.4506647,169.850662 L70.9319982,169.850662 L70.9319982,162.037329 L65.2679984,162.037329 L65.2679984,169.850662 L58.7399985,169.850662 L58.7399985,162.037329 L52.221332,162.037329 L52.221332,169.850662 L46.1506655,169.850662 L46.1506655,162.037329 L43.9586656,162.037329 L37.7506657,172.038662 Z M30.2626659,178.437329 L20.2613328,200.597328 L22.8839994,200.597328 L36.3653324,178.437329 L30.2626659,178.437329 Z M99.8213308,200.597328 L103.307997,200.597328 L99.8213308,178.437329 L91.1293311,178.437329 L99.8213308,200.597328 Z M35.2959991,192.158662 L39.2413324,190.843995 L40.5546657,182.075995 L33.9679992,190.399995 L35.2959991,192.158662 Z M118.04533,178.437329 L128.046663,200.619995 L125.42933,200.619995 L111.961331,178.437329 L118.04533,178.437329 Z M82.6426646,133.56533 L90.7186644,125.48933 L90.6559977,21.6546661 L82.5853313,13.641333 L82.6426646,133.56533 Z M72.7946648,146.607996 L0.910666644,74.7466648 L0.910666644,82.6399979 L65.2879984,146.607996 L72.7946648,146.607996 Z M147.019996,75.1333315 L75.1453315,146.607996 L83.0546646,146.607996 L147.019996,82.2493313 L147.019996,75.1333315 Z M75.5466648,0.106666664 L147.019996,71.9666649 L147.019996,64.4639984 L82.6426646,0.106666664 L75.5466648,0.106666664 Z M0.910666644,71.9666649 L72.7946648,0.106666664 L64.886665,0.106666664 L0.910666644,64.4639984 L0.910666644,71.9666649 Z M129.234663,86.5666645 L129.234663,60.2519985 L137.515997,68.5333316 L137.554663,78.203998 L129.234663,86.5666645 Z M114.24933,101.777331 L114.24933,45.2039989 L122.734664,53.7719987 L122.77733,93.1479977 L114.24933,101.777331 Z M98.8319975,117.394664 L107.237331,108.930664 L107.237331,38.2173324 L98.8319975,29.7919993 L98.8319975,117.394664 Z M62.8519984,87.3639978 C62.8519984,88.4479978 63.7359984,89.3453311 64.838665,89.3453311 C65.9173317,89.3453311 66.8013317,88.4479978 66.8013317,87.3639978 L66.8013317,79.8573313 L62.8519984,79.8573313 L62.8519984,87.3639978 Z M35.2773325,87.3639978 C35.2773325,88.4479978 36.1546658,89.3453311 37.2346657,89.3453311 C38.347999,89.3453311 39.2173324,88.4479978 39.2173324,87.3639978 L39.2173324,79.8573313 L35.2773325,79.8573313 L35.2773325,87.3639978 Z M44.7999989,51.3359987 L44.8239989,67.550665 C44.8239989,71.1079982 47.6653321,73.9879982 51.2279987,73.9879982 C54.7799986,73.9879982 57.6666652,71.1079982 57.6666652,67.550665 L57.6666652,51.3546654 L69.7813316,51.3546654 L69.7813316,95.1346643 L67.9573316,95.1346643 L67.9573316,92.005331 L66.0239983,92.005331 L66.0239983,95.1346643 L64.0599984,95.1346643 L64.0599984,92.005331 L62.3639984,92.005331 L62.3639984,95.1346643 L60.0146652,95.1346643 L60.0146652,79.875998 L56.8879986,79.875998 L56.8879986,109.217331 L54.293332,109.217331 L54.293332,105.702664 L52.7319987,105.702664 L52.7319987,109.217331 L49.9959988,109.217331 L49.9959988,105.702664 L48.2773321,105.702664 L48.2773321,109.217331 L45.5346655,109.217331 L45.5346655,79.875998 L42.4119989,79.875998 L42.4119989,95.1346643 L40.615999,95.1346643 L40.615999,92.005331 L38.647999,92.005331 L38.647999,95.1346643 L36.2946658,95.1346643 L36.2946658,92.005331 L34.6039991,92.005331 L34.6039991,95.1346643 L32.2533325,95.1346643 L32.2533325,51.3546654 L44.7999989,51.3359987 Z M49.2173321,99.4666642 C49.2173321,100.569331 50.0999987,101.451997 51.1853321,101.451997 C52.269332,101.451997 53.1666653,100.569331 53.1666653,99.4666642 L53.1666653,91.9866644 L49.1946654,91.9866644 L49.2173321,99.4666642 Z M73.9746648,142.275996 L5.64799986,73.5439982 L73.9746648,4.83066655 L73.9746648,142.275996 Z" id="path104"></path>
              </g>
            </g>
          </g>
        </g>
      </g>
    </g>
  </g>
</svg>