<svg
  xmlns="http://www.w3.org/2000/svg" width="57" height="69" viewBox="0 0 57 69">
  <defs/>
  <g fill="#fff" fill-rule="evenodd" transform="translate(-7)">
    <path d="M31.655 35.722a.364.364 0 00-.729 0l-.001 1.377h.73zm3.844 17.407V27.85L22.876 40.487zm-7.274-16.61v.577h.316v-.576h.434v.576h.362v-.576h.334v2.804h.577V33.93h.508v.648h.316v-.648h.506v.648h.288v-.648h.478v5.393h.578V36.52h.435v.576h.315v-.576h.362v.576h.359v-.576h.335v8.054H32.49l-.001-2.982c0-.655-.533-1.183-1.192-1.183-.656 0-1.182.53-1.182 1.183l-.003 2.987-2.318-.005V36.52zm.855 1.433a.365.365 0 00-.728 0l-.003 1.376h.73zm5.1 0a.366.366 0 00-.73 0l-.002 1.376h.73zm5.917-5.526V48.54l1.554-1.55V33.983zm2.845 2.873V45.7l1.569-1.577.013-7.24zm2.774 2.795v4.842l1.53-1.525.003-1.779zM22 42.159L33.825 54h1.457l-13.28-13.22zM37.104 54L49 42.16v-1.38L35.792 54zM35.72 27.052L49 40.2v-1.308L37.177 27.052zm-1.824 0L22 38.818v1.454l13.28-13.22zm3.208 2.402l-.012 22.056 1.493-1.475.01-19.098zm-9.276-6.975l1.365 2.798h12.694l1.447-2.879 1.043-.4L46.79 16H45.1l-1.687 1.76-.483-.561-1.123.56V16h-2.01l-1.124 1.76-.721-.64-.698.614-.75-1.734h-1.848l-.803 1.839-.883-.799-.724.799L31.04 16h-1.928l.018 1.776-.983-.655-.48.72L26.06 16h-2.008L26.702 22zm17.183-5.363h.484l-1.85 4.08h-1.124zm-3.225 1.678l.733-.243.244.324-1.217 1.535zM40.28 17.12h.643L40.28 21.2h-1.607zm-2.47 1.43l.407.324-.73 1.535-.243-1.616zm-2.672-1.43h.723l.483 4.079h-1.769zm-1.952 1.35l.569.483-.244 1.535-.73-1.535zm9.2 3.903l-1.101 1.84h-.563v-1.44h-1.125v1.44h-1.043v-1.44h-1.287v1.44h-1.124v-1.44h-1.205v1.44h-1.042v-1.44H32.69v1.44h-1.205v-1.44H30.36v1.44h-.402l-1.15-1.84zM30.64 17.121l1.606 4.079H30.64l-.563-4.08zm-2.287 1.551l.73.243.244 1.614-1.216-1.533zm-2.293-1.551l2.492 4.079h-1.126l-1.848-4.08z"/>
  </g>
</svg>
