<?xml version="1.0" encoding="UTF-8"?>
<svg width="27px" height="38px" viewBox="0 0 27 38" version="1.1" xmlns="http://www.w3.org/2000/svg" xmlns:xlink="http://www.w3.org/1999/xlink">
    <title>shield</title>
    <g id="Page-1" stroke="none" stroke-width="1" fill="none" fill-rule="evenodd">
        <g id="shield" fill="#000000" fill-rule="nonzero">
            <path d="M9.655,19.722 L9.654,21.099 L10.384,21.099 L9.655,19.722 Z M13.499,37.129 L13.499,11.85 L0.876,24.487 L13.499,37.129 Z M6.225,20.519 L6.225,21.096 L6.541,21.096 L6.541,20.52 L6.975,20.52 L6.975,21.096 L7.337,21.096 L7.337,20.52 L7.671,20.52 L7.671,23.324 L8.248,23.324 L8.248,17.93 L8.756,17.93 L8.756,18.578 L9.072,18.578 L9.072,17.93 L9.578,17.93 L9.578,18.578 L9.866,18.578 L9.866,17.93 L10.344,17.93 L10.344,23.323 L10.922,23.323 L10.922,20.52 L11.357,20.52 L11.357,21.096 L11.672,21.096 L11.672,20.52 L12.034,20.52 L12.034,21.096 L12.393,21.096 L12.393,20.52 L12.728,20.52 L12.728,28.574 L10.49,28.574 L10.489,25.592 C10.489,24.937 9.956,24.409 9.297,24.409 C8.641,24.409 8.115,24.939 8.115,25.592 L8.112,28.579 L5.794,28.574 L5.794,20.52 L6.225,20.519 Z M7.08,21.952 L7.077,23.328 L7.807,23.328 L7.08,21.952 Z M12.18,21.952 L12.178,23.328 L12.908,23.328 L12.18,21.952 Z M18.097,16.426 L18.097,32.54 L19.651,30.99 L19.651,17.983 L18.097,16.426 Z M20.942,19.299 L20.942,29.7 L22.511,28.123 L22.524,20.883 L20.942,19.299 Z M23.716,22.094 L23.716,26.936 L25.246,25.411 L25.249,23.632 L23.716,22.094 Z M0,26.159 L11.825,38 L13.282,38 L0.002,24.78 L0,26.159 Z M15.104,38 L27,26.16 L27,24.78 L13.792,38 L15.104,38 Z M13.72,11.052 L27,24.2 L27,22.892 L15.177,11.052 L13.72,11.052 Z M11.896,11.052 L0,22.818 L0,24.272 L13.28,11.052 L11.896,11.052 Z M15.104,13.454 L15.092,35.51 L16.585,34.035 L16.595,14.937 L15.104,13.454 Z M5.828,6.479 L7.193,9.277 L19.887,9.277 L21.334,6.398 L22.377,5.998 L24.79,0 L23.1,0 L21.413,1.76 L20.93,1.199 L19.807,1.759 L19.807,0 L17.797,0 L16.673,1.76 L15.952,1.12 L15.254,1.734 L14.504,0 L12.656,0 L11.853,1.839 L10.97,1.04 L10.246,1.839 L9.04,0 L7.112,0 L7.13,1.776 L6.147,1.121 L5.667,1.841 L4.06,0 L2.052,0 L4.702,6 L5.828,6.479 Z M23.011,1.116 L23.495,1.116 L21.645,5.196 L20.521,5.196 L23.011,1.116 Z M19.786,2.794 L20.519,2.551 L20.763,2.875 L19.546,4.41 L19.786,2.794 Z M18.28,1.12 L18.923,1.12 L18.28,5.2 L16.673,5.2 L18.28,1.12 Z M15.81,2.55 L16.217,2.874 L15.487,4.409 L15.244,2.793 L15.81,2.55 Z M13.138,1.12 L13.861,1.12 L14.344,5.199 L12.575,5.199 L13.138,1.12 Z M11.186,2.47 L11.755,2.953 L11.511,4.488 L10.781,2.953 L11.186,2.47 Z M20.386,6.373 L19.285,8.213 L18.722,8.213 L18.722,6.773 L17.597,6.773 L17.597,8.213 L16.554,8.213 L16.554,6.773 L15.267,6.773 L15.267,8.213 L14.143,8.213 L14.143,6.773 L12.938,6.773 L12.938,8.213 L11.896,8.213 L11.896,6.773 L10.69,6.773 L10.69,8.213 L9.485,8.213 L9.485,6.773 L8.36,6.773 L8.36,8.213 L7.958,8.213 L6.808,6.373 L20.386,6.373 Z M8.64,1.121 L10.246,5.2 L8.64,5.2 L8.077,1.12 L8.64,1.121 Z M6.353,2.672 L7.083,2.915 L7.327,4.529 L6.111,2.996 L6.353,2.672 Z M4.06,1.121 L6.552,5.2 L5.426,5.2 L3.578,1.12 L4.06,1.121 Z" id="Shape"></path>
        </g>
    </g>
</svg>